<svg width="13" height="13" viewBox="0 0 13 13" fill="none" xmlns="http://www.w3.org/2000/svg">
<path d="M1.68182 5.41667V4.91667H1.18182C1.055 4.91667 0.934915 4.88634 0.831982 4.83333H1.18182H11.8182H12.168C12.0651 4.88634 11.945 4.91667 11.8182 4.91667H11.3182V5.41667V10.8333C11.3182 11.2606 11.1334 11.6802 10.788 11.9968C10.4412 12.3147 9.96217 12.5 9.45455 12.5H3.54545C3.03783 12.5 2.5588 12.3147 2.21197 11.9968C1.8666 11.6802 1.68182 11.2606 1.68182 10.8333V5.41667ZM0.681818 4.33333V4.72877C0.559558 4.61566 0.5 4.47248 0.5 4.33333V3.25C0.5 3.11085 0.559558 2.96768 0.681818 2.85456V3.25V4.33333ZM1.18182 2.75H0.831982C0.934915 2.69699 1.055 2.66667 1.18182 2.66667H3.54545H4.04545V2.16667V1.08333C4.04545 0.944186 4.10501 0.801012 4.22727 0.687896V1.08333V2.16667V2.66667H4.72727H8.27273H8.77273V2.16667V1.08333V0.687895C8.89499 0.801012 8.95455 0.944186 8.95455 1.08333V2.16667V2.66667H9.45455H11.8182C11.945 2.66667 12.0651 2.69699 12.168 2.75H11.8182H1.18182ZM4.72727 0.583333H4.37744C4.48037 0.530328 4.60046 0.5 4.72727 0.5H8.27273C8.39954 0.5 8.51963 0.530328 8.62256 0.583333H8.27273H4.72727ZM12.3182 3.25V2.85456C12.4404 2.96768 12.5 3.11085 12.5 3.25V4.33333C12.5 4.47248 12.4404 4.61565 12.3182 4.72877V4.33333V3.25ZM2.36364 4.91667H1.86364V5.41667V10.8333C1.86364 11.268 2.05239 11.675 2.37192 11.9679C2.68999 12.2595 3.11277 12.4167 3.54545 12.4167H9.45455C9.88723 12.4167 10.31 12.2595 10.6281 11.9679C10.9476 11.675 11.1364 11.268 11.1364 10.8333V5.41667V4.91667H10.6364H2.36364Z" fill="#353435" stroke="#353435"/>
<path d="M4.21776 10.3061C4.20338 10.3193 4.17526 10.3333 4.13778 10.3333C4.10031 10.3333 4.07219 10.3193 4.05781 10.3061C4.05111 10.3 4.04843 10.2951 4.0475 10.2931C4.04711 10.2922 4.04694 10.2917 4.04688 10.2914V7.04194C4.04694 7.04167 4.04711 7.04113 4.0475 7.04027C4.04843 7.03821 4.05111 7.03337 4.05781 7.02723C4.07219 7.01405 4.10031 7 4.13778 7C4.17526 7 4.20338 7.01405 4.21776 7.02723C4.22445 7.03337 4.22714 7.03821 4.22807 7.04027C4.22846 7.04113 4.22863 7.04167 4.22869 7.04194V10.2914C4.22863 10.2917 4.22846 10.2922 4.22807 10.2931C4.22714 10.2951 4.22445 10.3 4.21776 10.3061Z" fill="#353435" stroke="#353435"/>
<path d="M6.58104 10.3061C6.56666 10.3193 6.53854 10.3333 6.50107 10.3333C6.46359 10.3333 6.43547 10.3193 6.42109 10.3061C6.4144 10.3 6.41171 10.2951 6.41078 10.2931C6.41039 10.2922 6.41022 10.2917 6.41016 10.2914V7.04194C6.41022 7.04167 6.41039 7.04113 6.41078 7.04027C6.41171 7.03821 6.41439 7.03337 6.42109 7.02723C6.43547 7.01405 6.46359 7 6.50107 7C6.53854 7 6.56666 7.01405 6.58104 7.02723C6.58774 7.03337 6.59042 7.03821 6.59135 7.04027C6.59174 7.04113 6.59191 7.04167 6.59197 7.04194V10.2914C6.59191 10.2917 6.59174 10.2922 6.59135 10.2931C6.59042 10.2951 6.58774 10.3 6.58104 10.3061Z" fill="#353435" stroke="#353435"/>
<path d="M8.94432 10.3061C8.92994 10.3193 8.90182 10.3333 8.86435 10.3333C8.82687 10.3333 8.79875 10.3193 8.78437 10.3061C8.77768 10.3 8.77499 10.2951 8.77406 10.2931C8.77367 10.2922 8.7735 10.2917 8.77344 10.2914V7.04194C8.7735 7.04167 8.77367 7.04113 8.77406 7.04027C8.77499 7.03821 8.77768 7.03337 8.78437 7.02723C8.79875 7.01405 8.82687 7 8.86435 7C8.90182 7 8.92994 7.01405 8.94432 7.02723C8.95102 7.03337 8.9537 7.03821 8.95463 7.04027C8.95502 7.04113 8.95519 7.04167 8.95526 7.04194V10.2914C8.95519 10.2917 8.95502 10.2922 8.95463 10.2931C8.9537 10.2951 8.95102 10.3 8.94432 10.3061Z" fill="#353435" stroke="#353435"/>
</svg>
