<svg width="16" height="16" viewBox="0 0 16 16" fill="none" xmlns="http://www.w3.org/2000/svg">
<path d="M3 2.5C2.72386 2.5 2.5 2.72386 2.5 3L2.5 7.5C2.5 7.77614 2.72386 8 3 8C3.27614 8 3.5 7.77614 3.5 7.5L3.5 3.5L7.5 3.5C7.77614 3.5 8 3.27614 8 3C8 2.72386 7.77614 2.5 7.5 2.5L3 2.5ZM13.3536 12.6464L3.35355 2.64645L2.64645 3.35355L12.6464 13.3536L13.3536 12.6464Z" fill="#353435"/>
<path d="M13 13.5C13.2761 13.5 13.5 13.2761 13.5 13L13.5 8.5C13.5 8.22386 13.2761 8 13 8C12.7239 8 12.5 8.22386 12.5 8.5L12.5 12.5L8.5 12.5C8.22386 12.5 8 12.7239 8 13C8 13.2761 8.22386 13.5 8.5 13.5L13 13.5ZM2.64645 3.35355L12.6464 13.3536L13.3536 12.6464L3.35355 2.64645L2.64645 3.35355Z" fill="#353435"/>
</svg>
