<svg width="17" height="17" viewBox="0 0 17 17" fill="none" xmlns="http://www.w3.org/2000/svg">
<path d="M0.988261 7.97601C0.956408 7.90829 0.950359 7.83128 0.971249 7.75942C0.992138 7.68756 1.03853 7.62579 1.10172 7.5857C1.16492 7.54562 1.24056 7.52997 1.31447 7.54169C1.38838 7.55341 1.45548 7.5917 1.50317 7.64937L2.97093 9.52493C2.88717 7.47247 3.85989 5.43102 5.70749 4.23845C8.48478 2.4458 12.1986 3.24598 13.9912 6.02327C14.6348 7.0203 15.1632 8.40999 15.2284 9.9708C15.248 10.4398 14.6227 10.3994 14.6162 9.99638C14.5896 8.35395 14.041 7.23366 13.4749 6.35655C11.8623 3.8583 8.539 3.14226 6.04076 4.75479C4.25342 5.90846 3.38402 7.93625 3.62043 9.91145L5.83822 8.17707C5.87024 8.15227 5.90683 8.13402 5.94591 8.12335C5.98499 8.11269 6.02578 8.10983 6.06596 8.11494C6.10615 8.12005 6.14493 8.13302 6.1801 8.15311C6.21527 8.17321 6.24613 8.20004 6.27093 8.23206C6.29573 8.26409 6.31398 8.30069 6.32463 8.33977C6.33529 8.37885 6.33814 8.41964 6.33303 8.45982C6.32791 8.5 6.31493 8.53879 6.29483 8.57395C6.27473 8.60912 6.2479 8.63998 6.21587 8.66477L3.54266 10.756C3.47839 10.8054 3.39722 10.8274 3.3168 10.8172C3.23638 10.807 3.16324 10.7655 3.1133 10.7017L1.02211 8.02845C1.00908 8.01216 0.997735 7.99459 0.988261 7.97601Z" fill="#353435" stroke="#353435" stroke-width="0.4"/>
<path d="M8.99751 14.084C8.59151 14.084 8.22985 13.9837 7.91251 13.783C7.59518 13.5823 7.34551 13.293 7.16351 12.915C6.98618 12.5323 6.89751 12.0773 6.89751 11.55C6.89751 11.0227 6.98618 10.57 7.16351 10.192C7.34551 9.80933 7.59518 9.51767 7.91251 9.317C8.22985 9.11633 8.59151 9.016 8.99751 9.016C9.40351 9.016 9.76518 9.11633 10.0825 9.317C10.3998 9.51767 10.6472 9.80933 10.8245 10.192C11.0065 10.57 11.0975 11.0227 11.0975 11.55C11.0975 12.0773 11.0065 12.5323 10.8245 12.915C10.6472 13.293 10.3998 13.5823 10.0825 13.783C9.76518 13.9837 9.40351 14.084 8.99751 14.084ZM8.99751 13.125C9.29618 13.125 9.52951 12.9967 9.69751 12.74C9.87018 12.4833 9.95651 12.0867 9.95651 11.55C9.95651 11.0133 9.87018 10.6167 9.69751 10.36C9.52951 10.1033 9.29618 9.975 8.99751 9.975C8.70351 9.975 8.47018 10.1033 8.29751 10.36C8.12951 10.6167 8.04551 11.0133 8.04551 11.55C8.04551 12.0867 8.12951 12.4833 8.29751 12.74C8.47018 12.9967 8.70351 13.125 8.99751 13.125Z" fill="#353435"/>
</svg>
