<svg width="38" height="30" viewBox="0 0 38 30" fill="none" xmlns="http://www.w3.org/2000/svg">
<path d="M33.9154 4.2819C31.9444 3.0585 29.6335 2.92257 27.5945 3.87411V0.815601C27.5945 0.339834 27.2547 0 26.7789 0H0.815601C0.339834 0 0 0.339834 0 0.815601V27.7304C0 28.614 0.747634 29.3616 1.6312 29.3616H26.0313C26.9148 29.3616 27.6625 28.614 27.6625 27.7304V21.0017C30.1772 20.526 34.0513 19.0307 36.4981 14.4769C38.3332 10.9426 37.2458 6.32091 33.9154 4.2819ZM26.0313 5.36937V20.3221V20.5939V27.7304H1.6312V1.6312H26.0313V5.36937ZM35.0029 13.7293C32.9639 17.4675 29.7694 18.8268 27.5945 19.3026V5.77717C29.2257 4.68971 31.3327 4.62174 33.0318 5.70921C35.6825 7.27244 36.4981 10.8747 35.0029 13.7293Z" fill="#353435"/>
<path d="M12.9938 6.4464C13.2033 5.80148 14.1157 5.80148 14.3253 6.4464L15.9235 11.3654C16.0172 11.6538 16.286 11.849 16.5893 11.849H21.7614C22.4395 11.849 22.7214 12.7168 22.1728 13.1154L17.9885 16.1554C17.7431 16.3337 17.6405 16.6496 17.7342 16.9381L19.3325 21.857C19.542 22.5019 18.8039 23.0382 18.2553 22.6396L14.071 19.5996C13.8256 19.4213 13.4934 19.4213 13.2481 19.5996L9.06375 22.6396C8.51515 23.0382 7.77702 22.5019 7.98656 21.857L9.58483 16.9381C9.67854 16.6496 9.57588 16.3337 9.33054 16.1554L5.14623 13.1154C4.59763 12.7168 4.87957 11.849 5.55767 11.849H10.7298C11.033 11.849 11.3018 11.6538 11.3955 11.3654L12.9938 6.4464Z" stroke="#353435" stroke-width="1.5"/>
</svg>
